<?xml version="1.0" encoding="UTF-8"?>
<svg id="Layer_1" data-name="Layer 1" xmlns="http://www.w3.org/2000/svg" viewBox="0 0 370.75 370.75">
  <defs>
    <style>
      .cls-1 {
        fill: #fff;
      }

      .cls-2 {
        fill: #202020;
      }
    </style>
  </defs>
  <path class="cls-1" d="M.05,185.37C.05,124.31,.06,63.26,0,2.2,0,.36,.36,0,2.2,0,124.32,.06,246.43,.06,368.55,0c1.84,0,2.2,.36,2.2,2.2-.06,122.12-.06,244.24,0,366.36,0,1.84-.36,2.2-2.2,2.2-122.12-.06-244.24-.06-366.36,0-1.84,0-2.2-.36-2.2-2.2,.06-61.06,.05-122.12,.05-183.18Z"/>
  <path class="cls-2" d="M185.49,324.1c-9.8-.73-19.42-1.76-28.91-3.94-6.58-1.52-13.33-2.24-20.1-2.58-4.33-.22-5.07-.64-6.05-4.83-1.26-5.38-2.28-10.78-1.22-16.38,.38-2,1.31-3,3.19-3.3,6.42-1.03,12.89-1.68,19.36-2.3,8.24-.8,16.5-1.44,24.69-2.68,2.26-.34,3.01-1.33,2.65-3.74-1.51-10.12-2.81-20.27-4.21-30.4-1.54-11.1-3.12-22.19-4.68-33.29-.56-3.96-1.2-7.92-1.59-11.9-.15-1.55-1-1.94-2.18-2.14-15.52-2.54-31.04-5.04-46.55-7.6-13.5-2.23-26.99-4.54-40.49-6.78-12.36-2.05-24.71-4.18-37.1-6-3.3-.48-5-1.6-5.87-4.98-1.62-6.27-3.85-12.38-4.47-18.9-.23-2.37,.04-4.62,.63-6.87,1.32-5.06,5.39-5.93,9.73-6.31,14.22-1.25,28.47-2.11,42.73-2.77,13.02-.6,26.04-1.24,39.04-2.19,9.14-.67,18.37-.66,27.38-2.62,4.8-1.05,9.23-3.17,13.62-5.34,1.3-.65,1.55-1.78,1.81-3.05,1.03-5.21,.23-10.51,.98-15.75,1.12-7.84,2.2-15.67,4.48-23.26,.83-2.76,2.42-4.8,5.72-4.59,1.11,.07,1.54-.4,1.69-1.53,.42-3.3,1.79-6.32,3.19-9.29,.52-1.11,1.11-2.46,2.58-2.41,1.42,.05,2.04,1.37,2.53,2.5,1.21,2.76,2.58,5.48,2.98,8.53,.19,1.48,.71,2.35,2.54,2.26,2.74-.13,4.14,1.75,4.91,4.13,1.85,5.67,2.84,11.54,3.76,17.42,1.06,6.8,1.51,13.65,1.63,20.53,.04,2.51,1.06,4.16,3.52,5.37,8.23,4.05,16.92,5.78,26.02,6.19,10.61,.48,21.2,1.32,31.8,1.95,7.49,.45,14.98,.78,22.46,1.23,10.69,.64,21.37,1.36,32.06,2,3.74,.23,7.46,.88,11.17,1.03,4.89,.19,7.94,4.28,8.13,9.5,.25,6.53-1.67,12.65-3.48,18.79-.08,.25-.19,.5-.27,.75-2.24,7.08-2.26,6.98-9.38,8.13-16.05,2.6-32.09,5.31-48.14,7.94-15.7,2.57-31.4,5.1-47.1,7.66-8.68,1.42-17.36,2.86-26.04,4.3-1.45,.24-2.23,.82-2.45,2.55-1.27,10.06-2.74,20.09-4.1,30.13-1.33,9.87-2.6,19.75-3.92,29.63-.74,5.55-1.45,11.11-2.35,16.64-.23,1.44,.09,1.8,1.41,2.15,4.59,1.23,9.32,1.44,14,1.93,10.27,1.08,20.58,1.8,30.81,3.3,2.36,.34,3.76,1.5,3.87,3.92,.28,5.72,.09,11.4-1.6,16.95-.74,2.42-2.05,3.65-4.73,3.77-9.35,.39-18.54,1.93-27.69,3.93-7.4,1.62-14.98,2.04-22.41,2.61Z"/>
</svg>