<?xml version="1.0" encoding="UTF-8"?>
<svg id="Layer_1" data-name="Layer 1" xmlns="http://www.w3.org/2000/svg" xmlns:xlink="http://www.w3.org/1999/xlink" viewBox="0 0 524.11 524.11">
  <defs>
    <style>
      .cls-1 {
        fill: #1d1d1b;
        font-family: SegoeUI-Bold, 'Segoe UI';
        font-size: 40px;
      }

      .cls-2 {
        fill: url(#radial-gradient);
        opacity: .5;
        stroke: #1d1d1b;
      }

      .cls-2, .cls-3 {
        stroke-miterlimit: 10;
      }

      .cls-3 {
        fill: none;
        stroke: #706f6f;
        stroke-width: 6px;
      }
    </style>
    <radialGradient id="radial-gradient" cx="262.06" cy="262.06" fx="262.06" fy="262.06" r="261.56" gradientUnits="userSpaceOnUse">
      <stop offset="0" stop-color="#fff"/>
      <stop offset="1" stop-color="#d9effd"/>
    </radialGradient>
  </defs>
  <circle class="cls-2" cx="262.06" cy="262.06" r="261.56"/>
  <g>
    <g>
      <g>
        <line class="cls-3" x1="262.06" y1="76.11" x2="262.06" y2="98.79"/>
        <line class="cls-3" x1="245.85" y1="76.82" x2="247.83" y2="99.41"/>
        <line class="cls-3" x1="229.77" y1="78.94" x2="233.71" y2="101.27"/>
        <line class="cls-3" x1="213.93" y1="82.45" x2="219.8" y2="104.35"/>
        <line class="cls-3" x1="198.46" y1="87.33" x2="206.22" y2="108.63"/>
        <line class="cls-3" x1="183.47" y1="93.53" x2="193.06" y2="114.08"/>
        <line class="cls-3" x1="169.08" y1="101.02" x2="180.42" y2="120.66"/>
        <line class="cls-3" x1="155.4" y1="109.74" x2="168.41" y2="128.31"/>
        <line class="cls-3" x1="142.53" y1="119.62" x2="157.11" y2="136.99"/>
        <line class="cls-3" x1="130.57" y1="130.57" x2="146.61" y2="146.61"/>
        <line class="cls-3" x1="119.62" y1="142.53" x2="136.99" y2="157.11"/>
        <line class="cls-3" x1="109.74" y1="155.4" x2="128.31" y2="168.41"/>
        <line class="cls-3" x1="101.02" y1="169.08" x2="120.66" y2="180.42"/>
        <line class="cls-3" x1="93.53" y1="183.47" x2="114.08" y2="193.06"/>
        <line class="cls-3" x1="87.33" y1="198.46" x2="108.63" y2="206.22"/>
        <line class="cls-3" x1="82.45" y1="213.93" x2="104.35" y2="219.8"/>
        <line class="cls-3" x1="78.94" y1="229.77" x2="101.27" y2="233.71"/>
        <line class="cls-3" x1="76.82" y1="245.85" x2="99.41" y2="247.83"/>
        <line class="cls-3" x1="76.11" y1="262.06" x2="98.79" y2="262.06"/>
        <line class="cls-3" x1="76.82" y1="278.26" x2="99.41" y2="276.29"/>
        <line class="cls-3" x1="78.94" y1="294.35" x2="101.27" y2="290.41"/>
        <line class="cls-3" x1="82.45" y1="310.18" x2="104.35" y2="304.31"/>
        <line class="cls-3" x1="87.33" y1="325.65" x2="108.63" y2="317.9"/>
        <line class="cls-3" x1="93.53" y1="340.64" x2="114.08" y2="331.06"/>
        <line class="cls-3" x1="101.02" y1="355.03" x2="120.66" y2="343.69"/>
        <line class="cls-3" x1="109.74" y1="368.71" x2="128.31" y2="355.71"/>
        <line class="cls-3" x1="119.62" y1="381.58" x2="136.99" y2="367.01"/>
        <line class="cls-3" x1="130.57" y1="393.54" x2="146.61" y2="377.51"/>
        <line class="cls-3" x1="142.53" y1="404.5" x2="157.11" y2="387.13"/>
        <line class="cls-3" x1="155.4" y1="414.37" x2="168.41" y2="395.8"/>
        <line class="cls-3" x1="169.08" y1="423.09" x2="180.42" y2="403.45"/>
        <line class="cls-3" x1="183.47" y1="430.58" x2="193.06" y2="410.03"/>
        <line class="cls-3" x1="198.46" y1="436.79" x2="206.22" y2="415.48"/>
        <line class="cls-3" x1="213.93" y1="441.67" x2="219.8" y2="419.76"/>
        <line class="cls-3" x1="229.77" y1="445.18" x2="233.71" y2="422.85"/>
        <line class="cls-3" x1="245.85" y1="447.29" x2="247.83" y2="424.71"/>
        <line class="cls-3" x1="262.06" y1="448" x2="262.06" y2="425.33"/>
        <line class="cls-3" x1="278.26" y1="447.29" x2="276.29" y2="424.71"/>
        <line class="cls-3" x1="294.35" y1="445.18" x2="290.41" y2="422.85"/>
        <line class="cls-3" x1="310.18" y1="441.67" x2="304.31" y2="419.76"/>
        <line class="cls-3" x1="325.65" y1="436.79" x2="317.9" y2="415.48"/>
        <line class="cls-3" x1="340.64" y1="430.58" x2="331.06" y2="410.03"/>
        <line class="cls-3" x1="355.03" y1="423.09" x2="343.69" y2="403.45"/>
        <line class="cls-3" x1="368.71" y1="414.37" x2="355.71" y2="395.8"/>
        <line class="cls-3" x1="381.58" y1="404.5" x2="367.01" y2="387.13"/>
        <line class="cls-3" x1="393.54" y1="393.54" x2="377.51" y2="377.51"/>
        <line class="cls-3" x1="404.5" y1="381.58" x2="387.13" y2="367.01"/>
        <line class="cls-3" x1="414.37" y1="368.71" x2="395.8" y2="355.71"/>
        <line class="cls-3" x1="423.09" y1="355.03" x2="403.45" y2="343.69"/>
        <line class="cls-3" x1="430.58" y1="340.64" x2="410.03" y2="331.06"/>
        <line class="cls-3" x1="436.79" y1="325.65" x2="415.48" y2="317.9"/>
        <line class="cls-3" x1="441.67" y1="310.18" x2="419.76" y2="304.31"/>
        <line class="cls-3" x1="445.18" y1="294.35" x2="422.85" y2="290.41"/>
        <line class="cls-3" x1="447.29" y1="278.26" x2="424.71" y2="276.29"/>
        <line class="cls-3" x1="448" y1="262.06" x2="425.33" y2="262.06"/>
        <line class="cls-3" x1="447.29" y1="245.85" x2="424.71" y2="247.83"/>
        <line class="cls-3" x1="445.18" y1="229.77" x2="422.85" y2="233.71"/>
        <line class="cls-3" x1="441.67" y1="213.93" x2="419.76" y2="219.8"/>
        <line class="cls-3" x1="436.79" y1="198.46" x2="415.48" y2="206.22"/>
        <line class="cls-3" x1="430.58" y1="183.47" x2="410.03" y2="193.06"/>
        <line class="cls-3" x1="423.09" y1="169.08" x2="403.45" y2="180.42"/>
        <line class="cls-3" x1="414.37" y1="155.4" x2="395.8" y2="168.41"/>
        <line class="cls-3" x1="404.5" y1="142.53" x2="387.13" y2="157.11"/>
        <line class="cls-3" x1="393.54" y1="130.57" x2="377.51" y2="146.61"/>
        <line class="cls-3" x1="381.58" y1="119.62" x2="367.01" y2="136.99"/>
        <line class="cls-3" x1="368.71" y1="109.74" x2="355.71" y2="128.31"/>
        <line class="cls-3" x1="355.03" y1="101.02" x2="343.69" y2="120.66"/>
        <line class="cls-3" x1="340.64" y1="93.53" x2="331.06" y2="114.08"/>
        <line class="cls-3" x1="325.65" y1="87.33" x2="317.9" y2="108.63"/>
        <line class="cls-3" x1="310.18" y1="82.45" x2="304.31" y2="104.35"/>
        <line class="cls-3" x1="294.35" y1="78.94" x2="290.41" y2="101.27"/>
        <line class="cls-3" x1="278.26" y1="76.82" x2="276.29" y2="99.41"/>
      </g>
      <g>
        <line class="cls-3" x1="262.06" y1="76.11" x2="262.06" y2="113.97"/>
        <line class="cls-3" x1="169.08" y1="101.02" x2="188.01" y2="133.81"/>
        <line class="cls-3" x1="101.02" y1="169.08" x2="133.81" y2="188.01"/>
        <line class="cls-3" x1="76.11" y1="262.06" x2="113.97" y2="262.06"/>
        <line class="cls-3" x1="101.02" y1="355.03" x2="133.81" y2="336.1"/>
        <line class="cls-3" x1="169.08" y1="423.09" x2="188.01" y2="390.3"/>
        <line class="cls-3" x1="262.06" y1="448" x2="262.06" y2="410.14"/>
        <line class="cls-3" x1="355.03" y1="423.09" x2="336.1" y2="390.3"/>
        <line class="cls-3" x1="423.09" y1="355.03" x2="390.3" y2="336.1"/>
        <line class="cls-3" x1="448" y1="262.06" x2="410.14" y2="262.06"/>
        <line class="cls-3" x1="423.09" y1="169.08" x2="390.3" y2="188.01"/>
        <line class="cls-3" x1="355.03" y1="101.02" x2="336.1" y2="133.81"/>
      </g>
      <g>
        <line class="cls-3" x1="262.06" y1="76.11" x2="262.06" y2="106.71"/>
        <line class="cls-3" x1="229.77" y1="78.94" x2="235.08" y2="109.07"/>
        <line class="cls-3" x1="198.46" y1="87.33" x2="208.93" y2="116.08"/>
        <line class="cls-3" x1="169.08" y1="101.02" x2="184.38" y2="127.52"/>
        <line class="cls-3" x1="142.53" y1="119.62" x2="162.2" y2="143.05"/>
        <line class="cls-3" x1="119.62" y1="142.53" x2="143.05" y2="162.2"/>
        <line class="cls-3" x1="101.02" y1="169.08" x2="127.52" y2="184.38"/>
        <line class="cls-3" x1="87.33" y1="198.46" x2="116.08" y2="208.93"/>
        <line class="cls-3" x1="78.94" y1="229.77" x2="109.07" y2="235.08"/>
        <line class="cls-3" x1="76.11" y1="262.06" x2="106.71" y2="262.06"/>
        <line class="cls-3" x1="78.94" y1="294.35" x2="109.07" y2="289.03"/>
        <line class="cls-3" x1="87.33" y1="325.65" x2="116.08" y2="315.19"/>
        <line class="cls-3" x1="101.02" y1="355.03" x2="127.52" y2="339.73"/>
        <line class="cls-3" x1="119.62" y1="381.58" x2="143.05" y2="361.91"/>
        <line class="cls-3" x1="142.53" y1="404.5" x2="162.2" y2="381.06"/>
        <line class="cls-3" x1="169.08" y1="423.09" x2="184.38" y2="396.59"/>
        <line class="cls-3" x1="198.46" y1="436.79" x2="208.93" y2="408.04"/>
        <line class="cls-3" x1="229.77" y1="445.18" x2="235.08" y2="415.05"/>
        <line class="cls-3" x1="262.06" y1="448" x2="262.06" y2="417.41"/>
        <line class="cls-3" x1="294.35" y1="445.18" x2="289.03" y2="415.05"/>
        <line class="cls-3" x1="325.65" y1="436.79" x2="315.19" y2="408.04"/>
        <line class="cls-3" x1="355.03" y1="423.09" x2="339.73" y2="396.59"/>
        <line class="cls-3" x1="381.58" y1="404.5" x2="361.91" y2="381.06"/>
        <line class="cls-3" x1="404.5" y1="381.58" x2="381.06" y2="361.91"/>
        <line class="cls-3" x1="423.09" y1="355.03" x2="396.59" y2="339.73"/>
        <line class="cls-3" x1="436.79" y1="325.65" x2="408.04" y2="315.19"/>
        <line class="cls-3" x1="445.18" y1="294.35" x2="415.05" y2="289.03"/>
        <line class="cls-3" x1="448" y1="262.06" x2="417.41" y2="262.06"/>
        <line class="cls-3" x1="445.18" y1="229.77" x2="415.05" y2="235.08"/>
        <line class="cls-3" x1="436.79" y1="198.46" x2="408.04" y2="208.93"/>
        <line class="cls-3" x1="423.09" y1="169.08" x2="396.59" y2="184.38"/>
        <line class="cls-3" x1="404.5" y1="142.53" x2="381.06" y2="162.2"/>
        <line class="cls-3" x1="381.58" y1="119.62" x2="361.91" y2="143.05"/>
        <line class="cls-3" x1="355.03" y1="101.02" x2="339.73" y2="127.52"/>
        <line class="cls-3" x1="325.65" y1="87.33" x2="315.19" y2="116.08"/>
        <line class="cls-3" x1="294.35" y1="78.94" x2="289.03" y2="109.07"/>
      </g>
    </g>
    <text class="cls-1" transform="translate(246.84 68.29)"><tspan x="0" y="0">N</tspan></text>
    <text class="cls-1" transform="translate(454.53 274.29)"><tspan x="0" y="0">E</tspan></text>
    <text class="cls-1" transform="translate(29.46 274.29)"><tspan x="0" y="0">W</tspan></text>
    <text class="cls-1" transform="translate(250.04 487.1)"><tspan x="0" y="0">S</tspan></text>
    <text class="cls-1" transform="translate(351.65 90.1)"><tspan x="0" y="0">3</tspan></text>
    <text class="cls-1" transform="translate(430.72 168.01)"><tspan x="0" y="0">6</tspan></text>
    <text class="cls-1" transform="translate(429.07 374.29)"><tspan x="0" y="0">12</tspan></text>
    <text class="cls-1" transform="translate(342.32 464.33)"><tspan x="0" y="0">15</tspan></text>
    <text class="cls-1" transform="translate(138.59 464.33)"><tspan x="0" y="0">21</tspan></text>
    <text class="cls-1" transform="translate(46.29 374.29)"><tspan x="0" y="0">24</tspan></text>
    <text class="cls-1" transform="translate(51.88 168.5)"><tspan x="0" y="0">30</tspan></text>
    <text class="cls-1" transform="translate(134.79 90.78)"><tspan x="0" y="0">33</tspan></text>
  </g>
</svg>