<?xml version="1.0" encoding="UTF-8"?>
<svg id="Layer_1" data-name="Layer 1" xmlns="http://www.w3.org/2000/svg" viewBox="0 0 524.11 524.11">
  <defs>
    <style>
      .cls-1 {
        fill: #fff;
      }

      .cls-2 {
        opacity: .5;
        stroke: #1d1d1b;
      }

      .cls-2, .cls-3, .cls-4, .cls-5 {
        fill: none;
      }

      .cls-2, .cls-4, .cls-6 {
        stroke-miterlimit: 10;
      }

      .cls-3 {
        stroke-linecap: round;
        stroke-width: 3px;
      }

      .cls-3, .cls-4, .cls-5 {
        stroke: #f6f6f6;
      }

      .cls-3, .cls-5 {
        stroke-linejoin: round;
      }

      .cls-4 {
        stroke-width: 5px;
      }

      .cls-5 {
        stroke-width: 7px;
      }

      .cls-6 {
        fill: #3c3c3b;
        stroke: #3c3c3b;
        stroke-width: 2px;
      }
    </style>
  </defs>
  <circle class="cls-2" cx="262.06" cy="262.06" r="261.56"/>
  <g>
    <g>
      <rect class="cls-6" x="236.7" y="125.6" width="50.61" height="272.91"/>
      <line class="cls-4" x1="262" y1="136.6" x2="262" y2="159.29"/>
      <line class="cls-4" x1="271.63" y1="136.28" x2="271.63" y2="158.98"/>
      <line class="cls-4" x1="252.46" y1="136.28" x2="252.46" y2="158.98"/>
      <line class="cls-4" x1="242.91" y1="136.28" x2="242.91" y2="158.98"/>
      <line class="cls-4" x1="281.26" y1="136.28" x2="281.26" y2="158.98"/>
      <line class="cls-4" x1="261.92" y1="366.02" x2="261.92" y2="388.71"/>
      <line class="cls-4" x1="271.55" y1="365.7" x2="271.55" y2="388.4"/>
      <line class="cls-4" x1="252.37" y1="365.7" x2="252.37" y2="388.4"/>
      <line class="cls-4" x1="242.82" y1="365.7" x2="242.82" y2="388.4"/>
      <line class="cls-4" x1="281.18" y1="365.7" x2="281.18" y2="388.4"/>
      <line class="cls-3" x1="261.92" y1="326.61" x2="261.92" y2="349.31"/>
      <line class="cls-3" x1="262" y1="289.31" x2="262" y2="312"/>
      <line class="cls-3" x1="261.8" y1="250.71" x2="261.8" y2="273.41"/>
      <line class="cls-3" x1="261.8" y1="213.08" x2="261.8" y2="235.78"/>
      <line class="cls-3" x1="261.8" y1="174.45" x2="261.8" y2="197.15"/>
      <line class="cls-5" x1="246.78" y1="307.25" x2="246.78" y2="331.98"/>
      <line class="cls-5" x1="276.72" y1="307.25" x2="276.72" y2="331.98"/>
      <line class="cls-5" x1="246.83" y1="196.03" x2="246.83" y2="220.76"/>
      <line class="cls-5" x1="276.77" y1="196.03" x2="276.77" y2="220.76"/>
    </g>
    <path class="cls-1" d="M261.4,321.53l-5.1,8.84c-.23,.4,.06,.9,.52,.9h10.21c.46,0,.75-.5,.52-.9l-5.1-8.84c-.23-.4-.8-.4-1.03,0Z"/>
    <path class="cls-1" d="M261.52,283.56l-5.18,8.97c-.21,.37,.05,.83,.48,.83h10.36c.42,0,.69-.46,.48-.83l-5.18-8.97c-.21-.37-.74-.37-.96,0Z"/>
    <path class="cls-1" d="M261.3,245.03l-5.15,8.91c-.22,.38,.06,.86,.5,.86h10.29c.44,0,.72-.48,.5-.86l-5.15-8.91c-.22-.38-.77-.38-.99,0Z"/>
    <path class="cls-1" d="M261.3,206.47l-5.15,8.91c-.22,.38,.06,.86,.5,.86h10.29c.44,0,.72-.48,.5-.86l-5.15-8.91c-.22-.38-.77-.38-.99,0Z"/>
    <path class="cls-1" d="M261.31,169.15l-5.15,8.92c-.22,.38,.05,.85,.49,.85h10.3c.44,0,.71-.47,.49-.85l-5.15-8.92c-.22-.38-.77-.38-.98,0Z"/>
  </g>
</svg>