<?xml version="1.0" encoding="UTF-8"?>
<svg id="Layer_1" data-name="Layer 1" xmlns="http://www.w3.org/2000/svg" viewBox="0 0 52.61 274.91">
  <defs>
    <style>
      .cls-1 {
        fill: #fff;
      }

      .cls-2 {
        stroke-linecap: round;
        stroke-width: 3px;
      }

      .cls-2, .cls-3, .cls-4 {
        fill: none;
        stroke: #f6f6f6;
      }

      .cls-2, .cls-4 {
        stroke-linejoin: round;
      }

      .cls-3 {
        stroke-width: 5px;
      }

      .cls-3, .cls-5 {
        stroke-miterlimit: 10;
      }

      .cls-4 {
        stroke-width: 7px;
      }

      .cls-5 {
        fill: #3c3c3b;
        stroke: #3c3c3b;
        stroke-width: 2px;
      }
    </style>
  </defs>
  <g>
    <rect class="cls-5" x="1" y="1" width="50.61" height="272.91"/>
    <line class="cls-3" x1="26.3" y1="11.99" x2="26.3" y2="34.69"/>
    <line class="cls-3" x1="35.94" y1="11.68" x2="35.94" y2="34.37"/>
    <line class="cls-3" x1="16.76" y1="11.68" x2="16.76" y2="34.37"/>
    <line class="cls-3" x1="7.21" y1="11.68" x2="7.21" y2="34.37"/>
    <line class="cls-3" x1="45.57" y1="11.68" x2="45.57" y2="34.37"/>
    <line class="cls-3" x1="26.22" y1="241.42" x2="26.22" y2="264.11"/>
    <line class="cls-3" x1="35.85" y1="241.1" x2="35.85" y2="263.8"/>
    <line class="cls-3" x1="16.67" y1="241.1" x2="16.67" y2="263.8"/>
    <line class="cls-3" x1="7.13" y1="241.1" x2="7.13" y2="263.8"/>
    <line class="cls-3" x1="45.48" y1="241.1" x2="45.48" y2="263.8"/>
    <line class="cls-2" x1="26.22" y1="202.01" x2="26.22" y2="224.71"/>
    <line class="cls-2" x1="26.3" y1="164.7" x2="26.3" y2="187.4"/>
    <line class="cls-2" x1="26.1" y1="126.11" x2="26.1" y2="148.8"/>
    <line class="cls-2" x1="26.1" y1="88.48" x2="26.1" y2="111.17"/>
    <line class="cls-2" x1="26.1" y1="49.85" x2="26.1" y2="72.55"/>
    <line class="cls-4" x1="11.09" y1="182.65" x2="11.09" y2="207.38"/>
    <line class="cls-4" x1="41.02" y1="182.65" x2="41.02" y2="207.38"/>
    <line class="cls-4" x1="11.13" y1="71.43" x2="11.13" y2="96.15"/>
    <line class="cls-4" x1="41.07" y1="71.43" x2="41.07" y2="96.15"/>
  </g>
  <path class="cls-1" d="M25.7,196.93l-5.1,8.84c-.23,.4,.06,.9,.52,.9h10.21c.46,0,.75-.5,.52-.9l-5.1-8.84c-.23-.4-.8-.4-1.03,0Z"/>
  <path class="cls-1" d="M25.83,158.95l-5.18,8.97c-.21,.37,.05,.83,.48,.83h10.36c.42,0,.69-.46,.48-.83l-5.18-8.97c-.21-.37-.74-.37-.96,0Z"/>
  <path class="cls-1" d="M25.61,120.42l-5.15,8.91c-.22,.38,.06,.86,.5,.86h10.29c.44,0,.72-.48,.5-.86l-5.15-8.91c-.22-.38-.77-.38-.99,0Z"/>
  <path class="cls-1" d="M25.61,81.87l-5.15,8.91c-.22,.38,.06,.86,.5,.86h10.29c.44,0,.72-.48,.5-.86l-5.15-8.91c-.22-.38-.77-.38-.99,0Z"/>
  <path class="cls-1" d="M25.61,44.55l-5.15,8.92c-.22,.38,.05,.85,.49,.85h10.3c.44,0,.71-.47,.49-.85l-5.15-8.92c-.22-.38-.77-.38-.98,0Z"/>
</svg>